<mxfile host="app.diagrams.net" modified="2023-05-26T15:46:14.612Z" agent="Mozilla/5.0 (Macintosh; Intel Mac OS X 10_15_7) AppleWebKit/537.36 (KHTML, like Gecko) Chrome/113.0.0.0 Safari/537.36" version="21.3.4" etag="WFOz1ArMzU6Vi--2auhY" type="github">
  <diagram name="Page-1" id="o1y073en-bkLovTwsrEo">
    <mxGraphModel>
      <root>
        <mxCell id="0" />
        <mxCell id="1" parent="0" />
      </root>
    </mxGraphModel>
  </diagram>
</mxfile>
